<svg width="169" height="41" viewBox="0 0 169 41" fill="none" xmlns="http://www.w3.org/2000/svg">
<path d="M3.56757 14.2931C3.56757 7.13638 8.1004 0.5 14.3074 0.5C18.6147 0.5 21.8109 3.4775 23.7838 7.70138C25.7565 3.47775 28.9527 0.5 33.2602 0.5C39.4679 0.5 44 7.1375 44 14.2931C44 29.611 23.7838 40.5 23.7838 40.5C23.7838 40.5 10.166 33.609 5.28369 22.3055H17.3441L19.2611 18.7235L21.5002 26.9615L26.7438 19.875H33.2973V17.375H25.5805L22.4998 21.5385L19.9822 12.2765L15.9532 19.8055H4.37603C4.62811 20.661 4.93347 21.4946 5.28369 22.3055L0 22.3054V19.8054L4.37603 19.8055C3.86062 18.0566 3.56757 16.2164 3.56757 14.2931Z" fill="#5D50C6"/>
<path d="M60.8523 15.0881V12.0455H75.1875V15.0881H69.8438V29.5H66.196V15.0881H60.8523ZM76.1207 29.5V16.4091H79.6406V18.6932H79.777C80.0156 17.8807 80.4162 17.267 80.9787 16.8523C81.5412 16.4318 82.1889 16.2216 82.9219 16.2216C83.1037 16.2216 83.2997 16.233 83.5099 16.2557C83.7202 16.2784 83.9048 16.3097 84.0639 16.3494V19.571C83.8935 19.5199 83.6577 19.4744 83.3565 19.4347C83.0554 19.3949 82.7798 19.375 82.5298 19.375C81.9957 19.375 81.5185 19.4915 81.098 19.7244C80.6832 19.9517 80.3537 20.2699 80.1094 20.679C79.8707 21.0881 79.7514 21.5597 79.7514 22.0938V29.5H76.1207ZM88.581 34.4091C88.1207 34.4091 87.6889 34.3722 87.2855 34.2983C86.8878 34.2301 86.5582 34.142 86.2969 34.0341L87.1151 31.3239C87.5412 31.4545 87.9247 31.5256 88.2656 31.5369C88.6122 31.5483 88.9105 31.4688 89.1605 31.2983C89.4162 31.1278 89.6236 30.8381 89.7827 30.429L89.9957 29.875L85.2997 16.4091H89.1179L91.8281 26.0227H91.9645L94.7003 16.4091H98.544L93.456 30.9148C93.2116 31.6193 92.8793 32.233 92.4588 32.7557C92.044 33.2841 91.5185 33.6903 90.8821 33.9744C90.2457 34.2642 89.4787 34.4091 88.581 34.4091ZM100.47 29.5V12.0455H104.161V26.4574H111.643V29.5H100.47ZM119.934 29.7557C118.61 29.7557 117.465 29.4744 116.499 28.9119C115.539 28.3437 114.798 27.554 114.275 26.5426C113.752 25.5256 113.491 24.3466 113.491 23.0057C113.491 21.6534 113.752 20.4716 114.275 19.4602C114.798 18.4432 115.539 17.6534 116.499 17.0909C117.465 16.5227 118.61 16.2386 119.934 16.2386C121.258 16.2386 122.4 16.5227 123.36 17.0909C124.326 17.6534 125.07 18.4432 125.593 19.4602C126.116 20.4716 126.377 21.6534 126.377 23.0057C126.377 24.3466 126.116 25.5256 125.593 26.5426C125.07 27.554 124.326 28.3437 123.36 28.9119C122.4 29.4744 121.258 29.7557 119.934 29.7557ZM119.951 26.9432C120.553 26.9432 121.056 26.7727 121.46 26.4318C121.863 26.0852 122.167 25.6136 122.371 25.017C122.582 24.4205 122.687 23.7415 122.687 22.9801C122.687 22.2188 122.582 21.5398 122.371 20.9432C122.167 20.3466 121.863 19.875 121.46 19.5284C121.056 19.1818 120.553 19.0085 119.951 19.0085C119.343 19.0085 118.832 19.1818 118.417 19.5284C118.008 19.875 117.698 20.3466 117.488 20.9432C117.283 21.5398 117.181 22.2188 117.181 22.9801C117.181 23.7415 117.283 24.4205 117.488 25.017C117.698 25.6136 118.008 26.0852 118.417 26.4318C118.832 26.7727 119.343 26.9432 119.951 26.9432ZM140.521 16.4091L135.944 29.5H131.853L127.276 16.4091H131.112L133.83 25.7756H133.967L136.677 16.4091H140.521ZM154.583 16.4091L150.006 29.5H145.915L141.339 16.4091H145.174L147.893 25.7756H148.029L150.739 16.4091H154.583ZM161.985 29.7557C160.638 29.7557 159.479 29.483 158.508 28.9375C157.542 28.3864 156.798 27.608 156.275 26.6023C155.752 25.5909 155.491 24.3949 155.491 23.0142C155.491 21.6676 155.752 20.4858 156.275 19.4688C156.798 18.4517 157.533 17.6591 158.482 17.0909C159.437 16.5227 160.556 16.2386 161.84 16.2386C162.704 16.2386 163.508 16.3778 164.252 16.6562C165.002 16.929 165.656 17.3409 166.212 17.892C166.775 18.4432 167.212 19.1364 167.525 19.9716C167.837 20.8011 167.994 21.7727 167.994 22.8864V23.8835H156.94V21.6335H164.576C164.576 21.1108 164.462 20.6477 164.235 20.2443C164.008 19.8409 163.692 19.5256 163.289 19.2983C162.891 19.0653 162.428 18.9489 161.9 18.9489C161.349 18.9489 160.86 19.0767 160.434 19.3324C160.013 19.5824 159.684 19.9205 159.445 20.3466C159.207 20.767 159.085 21.2358 159.079 21.7528V23.892C159.079 24.5398 159.198 25.0994 159.437 25.571C159.681 26.0426 160.025 26.4062 160.468 26.6619C160.911 26.9176 161.437 27.0455 162.045 27.0455C162.448 27.0455 162.817 26.9886 163.153 26.875C163.488 26.7614 163.775 26.5909 164.013 26.3636C164.252 26.1364 164.434 25.858 164.559 25.5284L167.917 25.75C167.746 26.5568 167.397 27.2614 166.869 27.8636C166.346 28.4602 165.67 28.9261 164.84 29.2614C164.016 29.5909 163.065 29.7557 161.985 29.7557Z" fill="#171616"/>
</svg>
