<svg width="166" height="41" viewBox="0 0 166 41" fill="none" xmlns="http://www.w3.org/2000/svg">
<path d="M1 0.5H41V40.5H1V0.5Z" fill="white" fill-opacity="0.01"/>
<path d="M41 0.5H1V40.5H41V0.5Z" fill="white" fill-opacity="0.01"/>
<path d="M25.5968 15.0901C30.1993 23.0616 29.7298 31.949 24.5483 34.9405C19.3668 37.932 11.4353 33.895 6.83297 25.9235C2.2306 17.9519 2.70008 9.06454 7.88158 6.07302C13.0631 3.08148 20.9945 7.11858 25.5968 15.0901Z" stroke="#5D50C6" stroke-width="6.11" stroke-linecap="round" stroke-linejoin="round"/>
<path d="M16.2148 15.0901C11.6125 23.0616 12.0819 31.949 17.2634 34.9405C22.4449 37.932 30.3763 33.895 34.9787 25.9235C39.5811 17.9519 39.1116 9.06454 33.9301 6.07302C28.7486 3.08148 20.8171 7.11858 16.2148 15.0901Z" stroke="#5D50C6" stroke-width="6.11" stroke-linecap="round" stroke-linejoin="round"/>
<path d="M20.7938 9.12891C22.5813 10.7187 24.2348 12.7331 25.5967 15.0921C30.1992 23.0636 29.7297 31.9509 24.5482 34.9425C23.4664 35.5671 22.2647 35.8852 20.9986 35.9252" stroke="#5D50C6" stroke-width="6.11" stroke-linecap="round" stroke-linejoin="round"/>
<path d="M57.8523 15.0881V12.0455H72.1875V15.0881H66.8438V29.5H63.196V15.0881H57.8523ZM73.1207 29.5V16.4091H76.6406V18.6932H76.777C77.0156 17.8807 77.4162 17.267 77.9787 16.8523C78.5412 16.4318 79.1889 16.2216 79.9219 16.2216C80.1037 16.2216 80.2997 16.233 80.5099 16.2557C80.7202 16.2784 80.9048 16.3097 81.0639 16.3494V19.571C80.8935 19.5199 80.6577 19.4744 80.3565 19.4347C80.0554 19.3949 79.7798 19.375 79.5298 19.375C78.9957 19.375 78.5185 19.4915 78.098 19.7244C77.6832 19.9517 77.3537 20.2699 77.1094 20.679C76.8707 21.0881 76.7514 21.5597 76.7514 22.0938V29.5H73.1207ZM85.581 34.4091C85.1207 34.4091 84.6889 34.3722 84.2855 34.2983C83.8878 34.2301 83.5582 34.142 83.2969 34.0341L84.1151 31.3239C84.5412 31.4545 84.9247 31.5256 85.2656 31.5369C85.6122 31.5483 85.9105 31.4688 86.1605 31.2983C86.4162 31.1278 86.6236 30.8381 86.7827 30.429L86.9957 29.875L82.2997 16.4091H86.1179L88.8281 26.0227H88.9645L91.7003 16.4091H95.544L90.456 30.9148C90.2116 31.6193 89.8793 32.233 89.4588 32.7557C89.044 33.2841 88.5185 33.6903 87.8821 33.9744C87.2457 34.2642 86.4787 34.4091 85.581 34.4091ZM97.4702 29.5V12.0455H101.161V26.4574H108.643V29.5H97.4702ZM116.934 29.7557C115.61 29.7557 114.465 29.4744 113.499 28.9119C112.539 28.3437 111.798 27.554 111.275 26.5426C110.752 25.5256 110.491 24.3466 110.491 23.0057C110.491 21.6534 110.752 20.4716 111.275 19.4602C111.798 18.4432 112.539 17.6534 113.499 17.0909C114.465 16.5227 115.61 16.2386 116.934 16.2386C118.258 16.2386 119.4 16.5227 120.36 17.0909C121.326 17.6534 122.07 18.4432 122.593 19.4602C123.116 20.4716 123.377 21.6534 123.377 23.0057C123.377 24.3466 123.116 25.5256 122.593 26.5426C122.07 27.554 121.326 28.3437 120.36 28.9119C119.4 29.4744 118.258 29.7557 116.934 29.7557ZM116.951 26.9432C117.553 26.9432 118.056 26.7727 118.46 26.4318C118.863 26.0852 119.167 25.6136 119.371 25.017C119.582 24.4205 119.687 23.7415 119.687 22.9801C119.687 22.2188 119.582 21.5398 119.371 20.9432C119.167 20.3466 118.863 19.875 118.46 19.5284C118.056 19.1818 117.553 19.0085 116.951 19.0085C116.343 19.0085 115.832 19.1818 115.417 19.5284C115.008 19.875 114.698 20.3466 114.488 20.9432C114.283 21.5398 114.181 22.2188 114.181 22.9801C114.181 23.7415 114.283 24.4205 114.488 25.017C114.698 25.6136 115.008 26.0852 115.417 26.4318C115.832 26.7727 116.343 26.9432 116.951 26.9432ZM137.521 16.4091L132.944 29.5H128.853L124.276 16.4091H128.112L130.83 25.7756H130.967L133.677 16.4091H137.521ZM151.583 16.4091L147.006 29.5H142.915L138.339 16.4091H142.174L144.893 25.7756H145.029L147.739 16.4091H151.583ZM158.985 29.7557C157.638 29.7557 156.479 29.483 155.508 28.9375C154.542 28.3864 153.798 27.608 153.275 26.6023C152.752 25.5909 152.491 24.3949 152.491 23.0142C152.491 21.6676 152.752 20.4858 153.275 19.4688C153.798 18.4517 154.533 17.6591 155.482 17.0909C156.437 16.5227 157.556 16.2386 158.84 16.2386C159.704 16.2386 160.508 16.3778 161.252 16.6562C162.002 16.929 162.656 17.3409 163.212 17.892C163.775 18.4432 164.212 19.1364 164.525 19.9716C164.837 20.8011 164.994 21.7727 164.994 22.8864V23.8835H153.94V21.6335H161.576C161.576 21.1108 161.462 20.6477 161.235 20.2443C161.008 19.8409 160.692 19.5256 160.289 19.2983C159.891 19.0653 159.428 18.9489 158.9 18.9489C158.349 18.9489 157.86 19.0767 157.434 19.3324C157.013 19.5824 156.684 19.9205 156.445 20.3466C156.207 20.767 156.085 21.2358 156.079 21.7528V23.892C156.079 24.5398 156.198 25.0994 156.437 25.571C156.681 26.0426 157.025 26.4062 157.468 26.6619C157.911 26.9176 158.437 27.0455 159.045 27.0455C159.448 27.0455 159.817 26.9886 160.153 26.875C160.488 26.7614 160.775 26.5909 161.013 26.3636C161.252 26.1364 161.434 25.858 161.559 25.5284L164.917 25.75C164.746 26.5568 164.397 27.2614 163.869 27.8636C163.346 28.4602 162.67 28.9261 161.84 29.2614C161.016 29.5909 160.065 29.7557 158.985 29.7557Z" fill="black"/>
</svg>
